#!OML:ASF H:\Terrain\Patient Classification 1\Terrain2\Thursday\justin.ASF
:FULLY-SPECIFIED
:DEGREES
975
root 5.4955 18.0122 21.1956 236.044 81.8121 237.965
lowerback 8.33605 -0.0157117 5.33862
upperback 2.9094 0.697516 4.29035
thorax -1.65288 0.430293 1.3729
lowerneck -14.1152 -2.85103 -8.31251
upperneck 34.4045 -1.53377 3.00802
head 14.2742 -0.911349 2.54647
rclavicle -1.19271e-014 -3.73715e-014
rhumerus -34.8118 -9.68631 -78.1986
rradius 26.7616
rwrist -7.72619
rhand -18.6021 11.6687
rfingers 7.12502
rthumb 7.68921 -18.1715
lclavicle -1.19271e-014 -3.73715e-014
lhumerus -36.9999 5.61613 86.1542
lradius 26.8869
lwrist -7.20168
lhand -11.9293 21.6615
lfingers 7.12502
lthumb 14.1251 51.1614
rfemur -9.46293 -4.49226 31.553
rtibia 19.4879
rfoot -6.97141 2.40229
rtoes 24.663
lfemur -27.3484 8.87533 -9.63559
ltibia 90.3796
lfoot -1.59198 -14.1337
ltoes -11.999
976
root 5.55313 17.9879 21.1687 256.009 77.1859 257.294
lowerback 8.01846 0.210732 11.3896
upperback 2.66109 1.60299 5.55545
thorax -1.58456 0.933493 -0.720084
lowerneck -14.0065 -2.95005 -8.17441
upperneck 34.4526 -1.72446 3.0195
head 14.2827 -0.971291 2.49827
rclavicle -1.18277e-014 -5.32743e-014
rhumerus -34.5364 -9.77943 -78.2468
rradius 26.9663
rwrist -7.40822
rhand -18.8844 12.0558
rfingers 7.12502
rthumb 7.41675 -17.7942
lclavicle -1.18277e-014 -5.32743e-014
lhumerus -36.8374 5.58625 86.1593
lradius 27.3524
lwrist -6.38595
lhand -11.391 20.6465
lfingers 7.12502
lthumb 14.6438 50.1094
rfemur -9.27266 -3.35981 37.7617
rtibia 17.9263
rfoot -6.17285 2.80061
rtoes 24.6563
lfemur -31.5831 12.3913 -2.66127
ltibia 95.026
lfoot -3.27892 -15.2665
ltoes -12.2387
977
root 5.68627 18.0636 21.2119 235.149 81.5485 237.435
lowerback 8.73282 0.164338 5.43388
upperback 3.08847 0.974209 4.24191
thorax -1.68004 0.573445 1.24085
lowerneck -14.0469 -3.13496 -8.20037
upperneck 34.5688 -2.07794 3.30624
head 14.3738 -1.08617 2.56769
rclavicle 2.0773e-014 1.66979e-014
rhumerus -34.2852 -9.87806 -78.2335
rradius 27.4073
rwrist -7.60811
rhand -18.8679 12.1391
rfingers 7.12502
rthumb 7.43271 -17.7104
lclavicle 2.0773e-014 1.66979e-014
lhumerus -36.617 4.59808 86.4233
lradius 28.0596
lwrist -4.68418
lhand -13.1607 22.0695
lfingers 7.12502
lthumb 12.9383 51.6484
rfemur -6.91067 -4.90786 31.7377
rtibia 16.5924
rfoot -6.19334 2.56355
rtoes 24.7218
lfemur -32.7536 9.71439 -9.45554
ltibia 97.7172
lfoot -3.81369 -12.8861
ltoes -8.5712
978
root 5.75226 18.0685 21.2369 240.537 81.0047 243.076
lowerback 9.35955 0.396895 6.01698
upperback 3.18588 1.41597 4.53578
thorax -1.91048 0.800886 1.17046
lowerneck -14.1893 -3.23119 -8.3731
upperneck 34.6522 -2.26858 3.63649
head 14.4663 -1.14551 2.70626
rclavicle -1.00386e-014 -5.80451e-014
rhumerus -33.8973 -9.74117 -78.3133
rradius 27.9572
rwrist -8.36647
rhand -18.9643 11.9864
rfingers 7.12502
rthumb 7.33965 -17.8663
lclavicle -1.00386e-014 -5.80451e-014
lhumerus -36.3994 4.25698 86.3551
lradius 28.8851
lwrist -3.84535
lhand -13.3437 22.5266
lfingers 7.12502
lthumb 12.7619 52.1166
rfemur -5.64935 -4.16064 32.8908
rtibia 15.073
rfoot -5.65914 2.06657
rtoes 25.2529
lfemur -35.5698 10.7072 -8.34857
ltibia 101.344
lfoot -5.01605 -12.6374
ltoes -10.2963
979
root 5.83453 18.0708 21.2441 242.68 80.6764 245.442
lowerback 9.75031 0.465767 6.39233
upperback 3.29816 1.59116 4.66147
thorax -1.99836 0.894556 1.06922
lowerneck -14.3479 -3.23883 -8.50242
upperneck 34.7529 -2.26791 3.76891
head 14.5536 -1.14425 2.78739
rclavicle 1.16289e-014 5.00937e-014
rhumerus -33.5421 -9.16852 -78.5921
rradius 28.5397
rwrist -9.14371
rhand -19.5621 11.8781
rfingers 7.12502
rthumb 6.76256 -17.9939
lclavicle 1.16289e-014 5.00937e-014
lhumerus -35.9446 4.4877 86.1943
lradius 29.3193
lwrist -3.15615
lhand -12.9879 22.3035
lfingers 7.12502
lthumb 13.1048 51.8717
rfemur -4.91446 -4.00765 33.4265
rtibia 14.7352
rfoot -5.72826 2.03596
rtoes 26.3558
lfemur -38.241 12.1461 -7.77874
ltibia 104.642
lfoot -6.89132 -12.6065
ltoes -14.518
980
root 5.92547 18.0846 21.2433 243.804 80.4049 246.607
lowerback 9.82582 0.486099 6.75742
upperback 3.3361 1.66649 4.71073
thorax -1.98892 0.936507 0.908876
lowerneck -14.2378 -3.23796 -8.64857
upperneck 34.7233 -2.27129 3.89249
head 14.5198 -1.14705 2.86339
rclavicle -1.98785e-014 -3.33958e-014
rhumerus -33.2837 -8.88032 -78.7349
rradius 29.0447
rwrist -9.37209
rhand -19.9898 12.016
rfingers 7.12502
rthumb 6.34967 -17.8688
lclavicle -1.98785e-014 -3.33958e-014
lhumerus -35.6327 4.40663 86.2957
lradius 29.8091
lwrist -1.68625
lhand -13.6849 22.1541
lfingers 7.12502
lthumb 12.4329 51.7643
rfemur -3.83473 -3.97048 33.7724
rtibia 13.3664
rfoot -5.20002 2.02913
rtoes 27.0072
lfemur -41.0468 12.8541 -7.54684
ltibia 107.878
lfoot -8.90923 -12.2215
ltoes -15.9891
981
root 6.0156 18.0965 21.2469 244.838 80.2521 247.681
lowerback 9.90211 0.589881 6.98647
upperback 3.38076 1.83272 4.6864
thorax -1.9705 1.02206 0.737331
lowerneck -14.072 -3.32851 -8.79172
upperneck 34.6249 -2.44413 4.08062
head 14.4568 -1.21372 2.93543
rclavicle -4.77083e-015 1.74931e-014
rhumerus -33.0326 -9.04059 -78.7822
rradius 29.5097
rwrist -9.40733
rhand -20.0952 12.2396
rfingers 7.12502
rthumb 6.24794 -17.6482
lclavicle -4.77083e-015 1.74931e-014
lhumerus -35.8628 3.92689 86.4163
lradius 30.9459
lwrist -0.258972
lhand -14.1101 21.7362
lfingers 7.12502
lthumb 12.0229 51.3708
rfemur -2.85926 -3.78824 34.038
rtibia 12.1878
rfoot -5.0369 1.94515
rtoes 26.355
lfemur -43.9495 13.5316 -7.46491
ltibia 110.955
lfoot -10.7299 -12.0326
ltoes -15.7216
